# xmcd
# 
# Track frame offsets:
#   150
#   18126
#   35753
# 
# Disc length: 705 seconds
# 
# Revision: 1
# Processed by: cddbd v1.5.1PL0 Copyright (c) Steve Scherf et al.
# Submitted via: VOLTOCDX V1.0.24 
# 
DISCID=1a02bf03
DTITLE=My Artist - My Title
DYEAR=2005
DGENRE=Description of the extended genre
TTITLE0=How Come You Don't Call Me
TTITLE1=Undivided
TTITLE2=Jane Doe
EXTD=Extended CD description
EXTT0=
EXTT1=
EXTT2=
PLAYORDER=
